
        <svg xmlns="http://www.w3.org/2000/svg" xmlns:xlink="http://www.w3.org/1999/xlink" version="1.1" width="3153.846153846154" 
        height="930.4989757260264" viewBox="0 0 3153.846153846154 930.4989757260264">
			
			<g transform="scale(7.6923076923076925) translate(10, 10)">
				<defs id="SvgjsDefs1026"></defs><g id="SvgjsG1027" featureKey="2ou6gm-0" transform="matrix(1.3513513513513513,0,0,1.3513513513513513,2.4324324324324316,-7.085136722873997)" fill="#d72323"><g xmlns="http://www.w3.org/2000/svg"><path d="M87,31.457c0-4.136-3.365-7.5-7.5-7.5c-0.584,0-1.166,0.067-1.73,0.201C77.318,24.265,77,24.667,77,25.131v6.826h-4.75v2   H77v33.681c0.508-0.287,1.07-0.479,1.656-0.607c0.279-0.044,0.563-0.074,0.844-0.074c3.033,0,5.5,2.468,5.5,5.501   c0,3.032-2.467,5.499-5.5,5.499c-0.002,0-0.002,0.001-0.002,0.001H20.502c-0.001,0-0.001-0.001-0.002-0.001   c-3.033,0-5.5-2.467-5.5-5.499c0-3.033,2.467-5.501,5.5-5.501c0.334,0,0.67,0.039,1.001,0.1c0.527,0.13,1.036,0.306,1.499,0.564   V33.956h9.946v-2H23v-6.825c0-0.464-0.319-0.866-0.77-0.973c-0.565-0.134-1.147-0.201-1.73-0.201c-4.135,0-7.5,3.364-7.5,7.5   v40.172c0,0.06,0.024,0.11,0.034,0.167C13.014,72.015,13,72.233,13,72.457c0,3.967,3.098,7.216,7,7.474v0.026h60v-0.026   c3.902-0.258,7-3.507,7-7.474c0-0.224-0.014-0.442-0.033-0.661C86.977,71.739,87,71.688,87,71.629V31.457z M15,31.457   c0-3.033,2.467-5.5,5.5-5.5c0.167,0,0.334,0.008,0.5,0.022v39.004c-0.167-0.011-0.333-0.027-0.5-0.027   c-2.174,0-4.128,0.936-5.5,2.419V31.457z M79.5,64.956c-0.166,0-0.334,0.017-0.5,0.027V25.979c0.166-0.015,0.332-0.022,0.5-0.022   c3.031,0,5.5,2.467,5.5,5.5v35.918C83.629,65.892,81.674,64.956,79.5,64.956z"></path><path d="M63,37.996L44.399,57.958H63V37.996z M61,55.958H48.997L61,43.076V55.958z"></path><path d="M30.043,53.277l19.32-19.32h10.455l-30.06,31.001L69,64.957V24.489l-7.242,7.468H51.363l5.551-5.55l-6.365-6.364   l-26.87,26.87L30.043,53.277z M67,62.957h-2v-2.999h-2v2.999h-2.002v-2.999h-2v2.999h-2v-2.999h-2v2.999h-2v-2.999h-2v2.999H49   v-2.999h-2v2.999h-2.002v-2.999h-2v3H41v-3h-2v3h-4.515L67,29.425V62.957z M54.086,26.407L30.043,50.449l-3.536-3.536l1.415-1.414   l2.121,2.121l1.414-1.414l-2.121-2.121l1.415-1.415l1.415,1.414l1.414-1.415l-1.414-1.414l1.412-1.412l2.121,2.121l1.414-1.414   l-2.121-2.121l1.415-1.415l1.415,1.414l1.414-1.414L37.822,35.6l1.414-1.414l2.122,2.121l1.414-1.414l-2.122-2.121l1.415-1.416   l1.415,1.415l1.414-1.414l-1.415-1.415l1.413-1.412l2.122,2.121l1.414-1.414l-2.122-2.121l1.415-1.415l1.414,1.414l1.414-1.414   l-1.414-1.414l1.414-1.415L54.086,26.407z"></path></g></g><g id="SvgjsG1028" featureKey="kZnDdN-0" transform="matrix(4.754659055845842,0,0,4.754659055845842,134.67478240158022,-5.42069444387009)" fill="#111111"><path d="M1.12 7.76 l3 0 l0 12.24 l-3 0 l0 -12.24 z M14.18 7.76 l3 0 l0 12.24 l-3 0 l-4.8 -7.16 l0 7.16 l-3 0 l0 -12.24 l3 0 l4.8 7.16 l0 -7.16 z M19.48 7.76 l3 0 l0 5.74 l3.94 -5.74 l3.72 0 l-4.28 6.12 l4.44 6.12 l-3.68 0 l-4.14 -5.76 l0 5.76 l-3 0 l0 -12.24 z M36.46 17.32 c2.18 0 3.3 -1.4 3.3 -3.44 c0 -2.16 -1.2 -3.44 -3.3 -3.44 c-2.2 0 -3.3 1.4 -3.3 3.44 c0 2.12 1.22 3.44 3.3 3.44 z M36.46 20.1 c-3.76 0 -6.3 -2.56 -6.3 -6.22 c0 -3.78 2.66 -6.22 6.3 -6.22 c3.78 0 6.3 2.54 6.3 6.22 c0 3.8 -2.64 6.22 -6.3 6.22 z M44.02 19.7 l0 -2.82 c0.24 0.06 0.54 0.12 0.88 0.16 c0.34 0.06 0.7 0.1 1.08 0.12 s0.76 0.04 1.16 0.06 s0.78 0.04 1.12 0.04 c0.94 0 1.6 -0.06 2 -0.16 c0.38 -0.1 0.58 -0.28 0.58 -0.56 c0 -0.24 -0.18 -0.42 -0.36 -0.56 c-0.66 -0.44 -1.44 -0.62 -2.22 -0.8 c-2.2 -0.44 -4.22 -1.32 -4.22 -3.84 c0 -2.98 2.82 -3.68 5.24 -3.68 c1.34 0 2.7 0.14 4 0.46 l0 2.82 c-0.2 -0.06 -0.46 -0.1 -0.78 -0.16 c-0.34 -0.04 -0.68 -0.08 -1.06 -0.12 c-0.78 -0.08 -1.52 -0.12 -2.3 -0.12 c-0.44 0 -1.36 0 -1.78 0.16 c-0.28 0.1 -0.46 0.22 -0.46 0.54 c0 0.16 0.04 0.3 0.12 0.42 c0.08 0.14 0.22 0.24 0.4 0.34 c0.54 0.3 1.24 0.48 1.84 0.62 c0.5 0.12 1 0.26 1.52 0.4 c1.76 0.48 2.92 1.46 2.92 3.34 c0 3.1 -3.08 3.76 -5.56 3.76 c-1.36 0 -2.78 -0.1 -4.12 -0.42 z"></path></g>
			</g>
		</svg>
	